# xmcd
#
# Track frame offsets:
#	150
#	16677
#	27625
#	39945
#	52470
#	62742
#	85320
#	98127
#	117562
#	131157
#	148312
#	165010
#	177200
#	193652
#	212780
#
# Disc length: 3020 seconds
#
# Revision: 0
# Processed by: cddbd v1.5.1PL0 Copyright (c) Steve Scherf et al.
# Submitted via: dBpowerAMP V4.0
#
DISCID=d90bca0f
DTITLE=Dolly Parton - The RCA Years 1967-1986  Disc. 2
DYEAR=1993
DGENRE=Country
TTITLE0=The Seeker
TTITLE1=Love Is Like A Butterfly
TTITLE2=Touch Your Woman
TTITLE3=The Bargain Store
TTITLE4=Making Plans  with Porter Wagoner
TTITLE5=The Light Of A Clear Blue Morning
TTITLE6=9 To 5
TTITLE7=Appalachian Memories
TTITLE8=Here You Come Again
TTITLE9=Single Women
TTITLE10=Hard Candy Christmas
TTITLE11=Baby I'm Burnin'
TTITLE12=Heartbreaker
TTITLE13=Islands In The Stream  with Kenny Rogers
TTITLE14=Tennessee Homesick Blues
EXTD=
EXTT0=
EXTT1=
EXTT2=
EXTT3=
EXTT4=
EXTT5=
EXTT6=
EXTT7=
EXTT8=
EXTT9=
EXTT10=
EXTT11=
EXTT12=
EXTT13=
EXTT14=
PLAYORDER=
